<?xml version="1.0" encoding="UTF-8"?>
<svg version="1.1" xmlns="http://www.w3.org/2000/svg" width="225" height="225">
<path d="M0 0 C74.25 0 148.5 0 225 0 C225 74.25 225 148.5 225 225 C150.75 225 76.5 225 0 225 C0 150.75 0 76.5 0 0 Z " fill="#FEFEFE" transform="translate(0,0)"/>
<path d="M0 0 C1.11028313 -0.0098568 1.11028313 -0.0098568 2.24299622 -0.01991272 C4.70195621 -0.03967744 7.16085467 -0.05132267 9.61987305 -0.0612793 C10.46235281 -0.06535482 11.30483257 -0.06943035 12.17284203 -0.07362938 C16.64224376 -0.09451543 21.11161467 -0.10879944 25.58105469 -0.11816406 C30.1693244 -0.12916227 34.7571002 -0.16347737 39.34519672 -0.20333576 C42.89459544 -0.22967364 46.44388034 -0.23787157 49.99336815 -0.24144554 C51.68242877 -0.24627672 53.37148552 -0.25778995 55.0604496 -0.27648354 C69.78940581 -0.42921363 83.39955787 1.20098868 94.5612793 11.8371582 C102.48523504 20.49043325 104.40725392 29.5602343 104.15112305 40.99731445 C103.59287176 51.11016292 98.60912911 58.15673199 91.7097168 65.21606445 C89.76345152 67.03923318 89.76345152 67.03923318 88.8190918 69.17700195 C89.7884668 69.89243164 90.7578418 70.60786133 91.7565918 71.3449707 C100.39961704 77.75704634 108.85068327 84.35354168 117.1628418 91.1887207 C121.04143727 94.37686974 125.00347073 97.45291067 128.9987793 100.4934082 C131.81035828 103.09381709 132.70294301 105.28652793 133.1940918 109.05200195 C132.71770678 113.02187709 131.28868754 115.07236731 128.8190918 118.17700195 C125.32113928 120.5089703 123.50282601 120.85335179 119.38549805 120.7277832 C113.95870535 119.56312906 109.99227836 115.64544509 105.8190918 112.17700195 C104.58837404 111.1744058 103.35654411 110.17317378 102.1237793 109.1730957 C100.10391672 107.53250535 98.08613659 105.88969361 96.07470703 104.23876953 C91.41266474 100.42277929 86.66110781 96.76103446 81.8190918 93.17700195 C76.11541209 88.94010404 70.48958152 84.61941054 64.9440918 80.17700195 C63.91735352 79.36682617 63.91735352 79.36682617 62.86987305 78.5402832 C62.23694336 78.02852539 61.60401367 77.51676758 60.9519043 76.98950195 C60.39390137 76.54219727 59.83589844 76.09489258 59.26098633 75.6340332 C56.62204334 72.96738712 55.87450243 70.5440974 55.3190918 66.86450195 C56.00782452 61.78509809 57.84441182 59.3508684 61.8190918 56.17700195 C64.84060022 54.54595827 67.91434405 53.09934489 71.0300293 51.6574707 C75.34246292 49.36837779 77.63471362 46.54575831 79.8190918 42.17700195 C80.23378361 37.67121595 80.30399523 33.51761734 78.7565918 29.23950195 C75.18719966 25.43982645 71.04987565 24.29719765 66.0118103 23.80519104 C64.62521321 23.79114558 63.23839192 23.79293807 61.85180664 23.80810547 C60.70652245 23.80245575 60.70652245 23.80245575 59.5381012 23.79669189 C57.89252318 23.79029209 56.24690814 23.79055857 54.6013298 23.79687691 C51.99476324 23.80603207 49.38890907 23.79571486 46.78237915 23.78025818 C39.3763327 23.74027009 31.97034549 23.73896008 24.56420898 23.74121094 C20.02373697 23.74126204 15.48365265 23.7220996 10.9432869 23.69187737 C8.37887721 23.68106151 5.8152097 23.69317338 3.25082397 23.70570374 C1.67640449 23.69679962 0.10199104 23.68672535 -1.47241211 23.67529297 C-2.53701408 23.68990822 -2.53701408 23.68990822 -3.62312317 23.70481873 C-8.41012313 23.63550899 -10.8130292 22.55340457 -14.1809082 19.17700195 C-16.39065836 15.56104715 -16.50512281 12.29440352 -15.86450195 8.1105957 C-13.3941435 1.12301037 -6.46997535 0.02479131 0 0 Z " fill="#E61D38" transform="translate(36.180908203125,60.822998046875)"/>
<path d="M0 0 C17.99832048 15.08430669 31.76224815 35.38830005 34 59.3125 C35.45296224 79.24229873 32.57194496 99.51069279 21.4375 116.5625 C18.09477872 120.33377529 15.91609389 121.11290689 11 121.625 C7.45179251 121.25539505 5.7696066 120.55812697 3 118.3125 C0.32023354 114.1542417 -0.42777391 111.20813477 0 106.3125 C1.42578125 103.05078125 1.42578125 103.05078125 3.3125 99.625 C8.5649278 90.07813438 10.55418534 80.81404403 10.4375 69.9375 C10.42505249 68.42760498 10.42505249 68.42760498 10.41235352 66.88720703 C10.23670965 59.13512429 9.21941725 52.43162803 6 45.3125 C5.525625 44.24128906 5.05125 43.17007813 4.5625 42.06640625 C-2.98716687 26.65855246 -15.23809067 15.13562148 -31.5 9.375 C-48.16223499 3.83968545 -67.00821034 4.15394192 -82.93359375 11.703125 C-88.13393077 14.38443852 -92.8576341 17.48247629 -97.44140625 21.11328125 C-100.65477927 23.58572616 -102.9862807 23.69843455 -107 23.3125 C-110.6578218 21.27256092 -112.66946174 19.80830738 -115 16.3125 C-115.75201988 12.58132445 -115.7746092 8.9754225 -114.1484375 5.484375 C-104.82292557 -6.75893515 -85.57121005 -14.46264447 -71.1015625 -17.22265625 C-45.71916149 -20.63579558 -20.50360604 -15.80419241 0 0 Z " fill="#424140" transform="translate(157,29.6875)"/>
<path d="M0 0 C4.41748871 2.3386705 6.88476858 4.48750629 9 9 C9.24511159 11.8187833 9.36115798 14.49534742 9.375 17.3125 C9.95217034 35.11766043 16.87405954 51.66018665 30 64 C46.49122634 77.56131303 64.4768611 81.52588321 85.36328125 79.625 C86.07701904 79.5640918 86.79075684 79.50318359 87.52612305 79.44042969 C89.51191972 79.2602597 91.49446397 79.04523113 93.4765625 78.828125 C97.78064318 79.03808016 99.69383371 80.31373989 103 83 C105.35242347 86.20785018 105.4684209 89.09649252 105 93 C102.49546049 97.91275058 100.17757936 100.15086451 95 102 C72.75556103 107.5436768 48.16514882 103.6228047 28.58544922 91.92456055 C6.54451554 78.09965654 -6.95831802 58.07427673 -13 33 C-14.13603801 27.65479551 -14.25276041 22.38176796 -14.3125 16.9375 C-14.34150391 16.05255859 -14.37050781 15.16761719 -14.40039062 14.25585938 C-14.44207502 9.98160553 -14.4116239 7.65758398 -12.09765625 3.9609375 C-8.22404712 0.33979824 -5.34685716 -0.64162286 0 0 Z " fill="#434241" transform="translate(25,90)"/>
<path d="M0 0 C2.75569447 2.18159145 4.43588747 3.87177494 6 7 C6.04227317 11.37950088 5.78687799 14.95082935 3.125 18.5 C-0.81202364 21.27907551 -4.29083092 21.40596285 -9 21 C-12.4121353 18.87689359 -14.74948744 16.86522064 -16 13 C-16.45972376 9.97895814 -16.60025379 7.96174492 -14.94921875 5.31640625 C-10.55173504 -0.09288787 -6.77250544 -1.07611485 0 0 Z " fill="#E61D38" transform="translate(187,174)"/>
</svg>
